<mxfile host="app.diagrams.net" modified="2021-01-12T01:11:10.023Z" agent="5.0 (Windows NT 10.0; Win64; x64) AppleWebKit/537.36 (KHTML, like Gecko) Chrome/87.0.4280.141 Safari/537.36" etag="_AKUjQ4PxgUBzTkjoYOj" version="14.1.9" type="github">
  <diagram id="WqmbnONgkp--xPlolZYl" name="Page-1">
    <mxGraphModel dx="1038" dy="548" grid="1" gridSize="10" guides="1" tooltips="1" connect="1" arrows="1" fold="1" page="1" pageScale="1" pageWidth="1654" pageHeight="2336" math="0" shadow="0">
      <root>
        <mxCell id="0" />
        <mxCell id="1" parent="0" />
        <mxCell id="crz99vqd3HnAdgXjQQs9-17" value="" style="rounded=0;whiteSpace=wrap;html=1;" vertex="1" parent="1">
          <mxGeometry x="313" y="177" width="520" height="155" as="geometry" />
        </mxCell>
        <mxCell id="ZK_1vw4lkR2J9z9WSvTo-64" value="" style="edgeStyle=orthogonalEdgeStyle;rounded=0;orthogonalLoop=1;jettySize=auto;html=1;" parent="1" source="ZK_1vw4lkR2J9z9WSvTo-1" target="ZK_1vw4lkR2J9z9WSvTo-63" edge="1">
          <mxGeometry relative="1" as="geometry" />
        </mxCell>
        <mxCell id="ZK_1vw4lkR2J9z9WSvTo-1" value="支出预算" style="rounded=1;whiteSpace=wrap;html=1;" parent="1" vertex="1">
          <mxGeometry x="50" y="220" width="120" height="60" as="geometry" />
        </mxCell>
        <mxCell id="ZK_1vw4lkR2J9z9WSvTo-4" value="经营预算" style="rounded=1;whiteSpace=wrap;html=1;" parent="1" vertex="1">
          <mxGeometry x="50" y="960" width="120" height="60" as="geometry" />
        </mxCell>
        <mxCell id="ZK_1vw4lkR2J9z9WSvTo-5" value="一层" style="text;html=1;align=center;verticalAlign=middle;resizable=0;points=[];autosize=1;" parent="1" vertex="1">
          <mxGeometry x="90" y="1040" width="40" height="20" as="geometry" />
        </mxCell>
        <mxCell id="ZK_1vw4lkR2J9z9WSvTo-30" style="edgeStyle=orthogonalEdgeStyle;rounded=0;orthogonalLoop=1;jettySize=auto;html=1;" parent="1" source="ZK_1vw4lkR2J9z9WSvTo-7" edge="1">
          <mxGeometry relative="1" as="geometry">
            <Array as="points">
              <mxPoint x="501" y="320" />
              <mxPoint x="570" y="320" />
            </Array>
            <mxPoint x="570" y="350" as="targetPoint" />
          </mxGeometry>
        </mxCell>
        <mxCell id="ZK_1vw4lkR2J9z9WSvTo-7" value="调增" style="shape=mxgraph.flowchart.predefined_process;" parent="1" vertex="1">
          <mxGeometry x="450.5" y="230" width="100" height="60" as="geometry" />
        </mxCell>
        <mxCell id="ZK_1vw4lkR2J9z9WSvTo-31" style="edgeStyle=orthogonalEdgeStyle;rounded=0;orthogonalLoop=1;jettySize=auto;html=1;" parent="1" source="ZK_1vw4lkR2J9z9WSvTo-8" edge="1">
          <mxGeometry relative="1" as="geometry">
            <Array as="points">
              <mxPoint x="632" y="320" />
              <mxPoint x="570" y="320" />
            </Array>
            <mxPoint x="570" y="350" as="targetPoint" />
          </mxGeometry>
        </mxCell>
        <mxCell id="ZK_1vw4lkR2J9z9WSvTo-8" value="调减" style="shape=mxgraph.flowchart.predefined_process;" parent="1" vertex="1">
          <mxGeometry x="581.5" y="230" width="100" height="60" as="geometry" />
        </mxCell>
        <mxCell id="ZK_1vw4lkR2J9z9WSvTo-32" style="edgeStyle=orthogonalEdgeStyle;rounded=0;orthogonalLoop=1;jettySize=auto;html=1;" parent="1" source="ZK_1vw4lkR2J9z9WSvTo-9" edge="1">
          <mxGeometry relative="1" as="geometry">
            <Array as="points">
              <mxPoint x="770" y="320" />
              <mxPoint x="570" y="320" />
            </Array>
            <mxPoint x="570" y="350" as="targetPoint" />
          </mxGeometry>
        </mxCell>
        <mxCell id="ZK_1vw4lkR2J9z9WSvTo-9" value="净调整" style="shape=mxgraph.flowchart.predefined_process;" parent="1" vertex="1">
          <mxGeometry x="719.5" y="230" width="100" height="60" as="geometry" />
        </mxCell>
        <mxCell id="ZK_1vw4lkR2J9z9WSvTo-29" style="edgeStyle=orthogonalEdgeStyle;rounded=0;orthogonalLoop=1;jettySize=auto;html=1;" parent="1" source="ZK_1vw4lkR2J9z9WSvTo-10" edge="1">
          <mxGeometry relative="1" as="geometry">
            <Array as="points">
              <mxPoint x="371" y="320" />
              <mxPoint x="570" y="320" />
            </Array>
            <mxPoint x="570" y="350" as="targetPoint" />
          </mxGeometry>
        </mxCell>
        <mxCell id="ZK_1vw4lkR2J9z9WSvTo-10" value="新增" style="shape=mxgraph.flowchart.predefined_process;" parent="1" vertex="1">
          <mxGeometry x="320.5" y="230" width="100" height="60" as="geometry" />
        </mxCell>
        <mxCell id="ZK_1vw4lkR2J9z9WSvTo-16" value="下钻" style="shape=singleArrow;whiteSpace=wrap;html=1;" parent="1" vertex="1">
          <mxGeometry x="200" y="225" width="90" height="50" as="geometry" />
        </mxCell>
        <mxCell id="ZK_1vw4lkR2J9z9WSvTo-28" value="二层" style="text;html=1;align=center;verticalAlign=middle;resizable=0;points=[];autosize=1;" parent="1" vertex="1">
          <mxGeometry x="550" y="420" width="40" height="20" as="geometry" />
        </mxCell>
        <mxCell id="ZK_1vw4lkR2J9z9WSvTo-33" value="下钻" style="shape=singleArrow;whiteSpace=wrap;html=1;" parent="1" vertex="1">
          <mxGeometry x="200" y="605" width="90" height="50" as="geometry" />
        </mxCell>
        <mxCell id="ZK_1vw4lkR2J9z9WSvTo-40" value="" style="edgeStyle=orthogonalEdgeStyle;rounded=0;orthogonalLoop=1;jettySize=auto;html=1;" parent="1" source="ZK_1vw4lkR2J9z9WSvTo-36" edge="1">
          <mxGeometry relative="1" as="geometry">
            <Array as="points">
              <mxPoint x="702" y="600" />
              <mxPoint x="702" y="600" />
            </Array>
            <mxPoint x="702" y="530" as="targetPoint" />
          </mxGeometry>
        </mxCell>
        <mxCell id="ZK_1vw4lkR2J9z9WSvTo-42" value="项目ID、支出总额" style="edgeLabel;html=1;align=center;verticalAlign=middle;resizable=0;points=[];" parent="ZK_1vw4lkR2J9z9WSvTo-40" vertex="1" connectable="0">
          <mxGeometry x="-0.2167" y="3" relative="1" as="geometry">
            <mxPoint y="-13" as="offset" />
          </mxGeometry>
        </mxCell>
        <mxCell id="ZK_1vw4lkR2J9z9WSvTo-36" value="经营预算" style="whiteSpace=wrap;html=1;rounded=1;" parent="1" vertex="1">
          <mxGeometry x="650" y="750" width="120" height="60" as="geometry" />
        </mxCell>
        <mxCell id="ZK_1vw4lkR2J9z9WSvTo-53" style="edgeStyle=orthogonalEdgeStyle;rounded=0;orthogonalLoop=1;jettySize=auto;html=1;entryX=0;entryY=0.5;entryDx=0;entryDy=0;" parent="1" target="ZK_1vw4lkR2J9z9WSvTo-36" edge="1">
          <mxGeometry relative="1" as="geometry">
            <mxPoint x="490" y="780" as="sourcePoint" />
          </mxGeometry>
        </mxCell>
        <mxCell id="ZK_1vw4lkR2J9z9WSvTo-54" value="同步" style="edgeLabel;html=1;align=center;verticalAlign=middle;resizable=0;points=[];" parent="ZK_1vw4lkR2J9z9WSvTo-53" vertex="1" connectable="0">
          <mxGeometry x="0.275" y="-4" relative="1" as="geometry">
            <mxPoint x="-22" y="-4" as="offset" />
          </mxGeometry>
        </mxCell>
        <mxCell id="crz99vqd3HnAdgXjQQs9-29" value="" style="edgeStyle=orthogonalEdgeStyle;rounded=0;orthogonalLoop=1;jettySize=auto;html=1;" edge="1" parent="1" source="crz99vqd3HnAdgXjQQs9-38" target="crz99vqd3HnAdgXjQQs9-25">
          <mxGeometry relative="1" as="geometry">
            <mxPoint x="400" y="750" as="sourcePoint" />
            <Array as="points">
              <mxPoint x="400" y="710" />
              <mxPoint x="400" y="710" />
            </Array>
          </mxGeometry>
        </mxCell>
        <mxCell id="crz99vqd3HnAdgXjQQs9-30" value="已处理" style="edgeLabel;html=1;align=center;verticalAlign=middle;resizable=0;points=[];" vertex="1" connectable="0" parent="crz99vqd3HnAdgXjQQs9-29">
          <mxGeometry x="-0.24" y="-2" relative="1" as="geometry">
            <mxPoint as="offset" />
          </mxGeometry>
        </mxCell>
        <mxCell id="ZK_1vw4lkR2J9z9WSvTo-52" value="二层" style="text;html=1;align=center;verticalAlign=middle;resizable=0;points=[];autosize=1;" parent="1" vertex="1">
          <mxGeometry x="520" y="830" width="40" height="20" as="geometry" />
        </mxCell>
        <mxCell id="ZK_1vw4lkR2J9z9WSvTo-65" style="edgeStyle=orthogonalEdgeStyle;rounded=0;orthogonalLoop=1;jettySize=auto;html=1;" parent="1" source="ZK_1vw4lkR2J9z9WSvTo-63" target="ZK_1vw4lkR2J9z9WSvTo-4" edge="1">
          <mxGeometry relative="1" as="geometry" />
        </mxCell>
        <mxCell id="ZK_1vw4lkR2J9z9WSvTo-63" value="数据处理" style="shape=process;whiteSpace=wrap;html=1;backgroundOutline=1;rounded=1;" parent="1" vertex="1">
          <mxGeometry x="50" y="600" width="120" height="60" as="geometry" />
        </mxCell>
        <mxCell id="crz99vqd3HnAdgXjQQs9-1" value="下钻" style="shape=singleArrow;whiteSpace=wrap;html=1;" vertex="1" parent="1">
          <mxGeometry x="872" y="111" width="100" height="40" as="geometry" />
        </mxCell>
        <mxCell id="crz99vqd3HnAdgXjQQs9-4" style="edgeStyle=orthogonalEdgeStyle;rounded=0;orthogonalLoop=1;jettySize=auto;html=1;entryX=0.5;entryY=0;entryDx=0;entryDy=0;" edge="1" parent="1" source="crz99vqd3HnAdgXjQQs9-2" target="crz99vqd3HnAdgXjQQs9-3">
          <mxGeometry relative="1" as="geometry" />
        </mxCell>
        <mxCell id="crz99vqd3HnAdgXjQQs9-5" value="项目ID、年月" style="edgeLabel;html=1;align=center;verticalAlign=middle;resizable=0;points=[];" vertex="1" connectable="0" parent="crz99vqd3HnAdgXjQQs9-4">
          <mxGeometry x="0.3046" relative="1" as="geometry">
            <mxPoint as="offset" />
          </mxGeometry>
        </mxCell>
        <mxCell id="crz99vqd3HnAdgXjQQs9-2" value="管理员" style="rounded=0;whiteSpace=wrap;html=1;" vertex="1" parent="1">
          <mxGeometry x="1070" y="50" width="120" height="60" as="geometry" />
        </mxCell>
        <mxCell id="crz99vqd3HnAdgXjQQs9-7" style="edgeStyle=orthogonalEdgeStyle;rounded=0;orthogonalLoop=1;jettySize=auto;html=1;" edge="1" parent="1" source="crz99vqd3HnAdgXjQQs9-3" target="crz99vqd3HnAdgXjQQs9-20">
          <mxGeometry relative="1" as="geometry">
            <mxPoint x="1130" y="310" as="targetPoint" />
          </mxGeometry>
        </mxCell>
        <mxCell id="crz99vqd3HnAdgXjQQs9-8" value="可操作的按钮权限" style="edgeLabel;html=1;align=center;verticalAlign=middle;resizable=0;points=[];" vertex="1" connectable="0" parent="crz99vqd3HnAdgXjQQs9-7">
          <mxGeometry x="0.2327" relative="1" as="geometry">
            <mxPoint as="offset" />
          </mxGeometry>
        </mxCell>
        <mxCell id="crz99vqd3HnAdgXjQQs9-3" value="判断项目、年月" style="shape=process;whiteSpace=wrap;html=1;backgroundOutline=1;" vertex="1" parent="1">
          <mxGeometry x="1070" y="180" width="120" height="60" as="geometry" />
        </mxCell>
        <mxCell id="crz99vqd3HnAdgXjQQs9-11" value="" style="edgeStyle=orthogonalEdgeStyle;rounded=0;orthogonalLoop=1;jettySize=auto;html=1;" edge="1" parent="1" source="crz99vqd3HnAdgXjQQs9-9" target="crz99vqd3HnAdgXjQQs9-10">
          <mxGeometry relative="1" as="geometry" />
        </mxCell>
        <mxCell id="crz99vqd3HnAdgXjQQs9-12" value="项目ID、年月" style="edgeLabel;html=1;align=center;verticalAlign=middle;resizable=0;points=[];" vertex="1" connectable="0" parent="crz99vqd3HnAdgXjQQs9-11">
          <mxGeometry x="0.508" y="-4" relative="1" as="geometry">
            <mxPoint as="offset" />
          </mxGeometry>
        </mxCell>
        <mxCell id="crz99vqd3HnAdgXjQQs9-9" value="管理员" style="rounded=0;whiteSpace=wrap;html=1;" vertex="1" parent="1">
          <mxGeometry x="510" y="13" width="120" height="60" as="geometry" />
        </mxCell>
        <mxCell id="crz99vqd3HnAdgXjQQs9-13" style="edgeStyle=orthogonalEdgeStyle;rounded=0;orthogonalLoop=1;jettySize=auto;html=1;" edge="1" parent="1" source="crz99vqd3HnAdgXjQQs9-10" target="ZK_1vw4lkR2J9z9WSvTo-10">
          <mxGeometry relative="1" as="geometry">
            <Array as="points">
              <mxPoint x="570" y="190" />
              <mxPoint x="371" y="190" />
            </Array>
          </mxGeometry>
        </mxCell>
        <mxCell id="crz99vqd3HnAdgXjQQs9-14" style="edgeStyle=orthogonalEdgeStyle;rounded=0;orthogonalLoop=1;jettySize=auto;html=1;entryX=0.5;entryY=0;entryDx=0;entryDy=0;entryPerimeter=0;" edge="1" parent="1" source="crz99vqd3HnAdgXjQQs9-10" target="ZK_1vw4lkR2J9z9WSvTo-7">
          <mxGeometry relative="1" as="geometry">
            <Array as="points">
              <mxPoint x="570" y="190" />
              <mxPoint x="501" y="190" />
            </Array>
          </mxGeometry>
        </mxCell>
        <mxCell id="crz99vqd3HnAdgXjQQs9-15" style="edgeStyle=orthogonalEdgeStyle;rounded=0;orthogonalLoop=1;jettySize=auto;html=1;entryX=0.5;entryY=0;entryDx=0;entryDy=0;entryPerimeter=0;" edge="1" parent="1" source="crz99vqd3HnAdgXjQQs9-10" target="ZK_1vw4lkR2J9z9WSvTo-8">
          <mxGeometry relative="1" as="geometry">
            <Array as="points">
              <mxPoint x="570" y="190" />
              <mxPoint x="632" y="190" />
            </Array>
          </mxGeometry>
        </mxCell>
        <mxCell id="crz99vqd3HnAdgXjQQs9-16" style="edgeStyle=orthogonalEdgeStyle;rounded=0;orthogonalLoop=1;jettySize=auto;html=1;" edge="1" parent="1" source="crz99vqd3HnAdgXjQQs9-10" target="ZK_1vw4lkR2J9z9WSvTo-9">
          <mxGeometry relative="1" as="geometry">
            <Array as="points">
              <mxPoint x="570" y="190" />
              <mxPoint x="770" y="190" />
            </Array>
          </mxGeometry>
        </mxCell>
        <mxCell id="crz99vqd3HnAdgXjQQs9-10" value="白名单校验" style="rounded=1;whiteSpace=wrap;html=1;" vertex="1" parent="1">
          <mxGeometry x="510" y="101" width="120" height="60" as="geometry" />
        </mxCell>
        <mxCell id="crz99vqd3HnAdgXjQQs9-19" value="支出预算管理" style="text;html=1;align=center;verticalAlign=middle;resizable=0;points=[];autosize=1;" vertex="1" parent="1">
          <mxGeometry x="782" y="180" width="90" height="20" as="geometry" />
        </mxCell>
        <mxCell id="crz99vqd3HnAdgXjQQs9-20" value="&lt;span&gt;支出预算管理&lt;/span&gt;" style="rounded=0;whiteSpace=wrap;html=1;" vertex="1" parent="1">
          <mxGeometry x="1070" y="310" width="120" height="60" as="geometry" />
        </mxCell>
        <mxCell id="crz99vqd3HnAdgXjQQs9-21" value="三层" style="text;html=1;align=center;verticalAlign=middle;resizable=0;points=[];autosize=1;" vertex="1" parent="1">
          <mxGeometry x="1110" y="380" width="40" height="20" as="geometry" />
        </mxCell>
        <mxCell id="crz99vqd3HnAdgXjQQs9-22" value="下钻" style="shape=singleArrow;whiteSpace=wrap;html=1;arrowWidth=0.15333353678385417;arrowSize=0.2739996337890625;" vertex="1" parent="1">
          <mxGeometry x="810" y="470" width="100" height="60" as="geometry" />
        </mxCell>
        <mxCell id="crz99vqd3HnAdgXjQQs9-27" value="" style="edgeStyle=orthogonalEdgeStyle;rounded=0;orthogonalLoop=1;jettySize=auto;html=1;" edge="1" parent="1" source="crz99vqd3HnAdgXjQQs9-23" target="crz99vqd3HnAdgXjQQs9-25">
          <mxGeometry relative="1" as="geometry" />
        </mxCell>
        <mxCell id="crz99vqd3HnAdgXjQQs9-28" value="预算项目ID、年份、预算科目" style="edgeLabel;html=1;align=center;verticalAlign=middle;resizable=0;points=[];" vertex="1" connectable="0" parent="crz99vqd3HnAdgXjQQs9-27">
          <mxGeometry x="0.1956" y="-1" relative="1" as="geometry">
            <mxPoint as="offset" />
          </mxGeometry>
        </mxCell>
        <mxCell id="crz99vqd3HnAdgXjQQs9-34" style="edgeStyle=orthogonalEdgeStyle;rounded=0;orthogonalLoop=1;jettySize=auto;html=1;" edge="1" parent="1" source="crz99vqd3HnAdgXjQQs9-23">
          <mxGeometry relative="1" as="geometry">
            <mxPoint x="650" y="480" as="targetPoint" />
            <Array as="points">
              <mxPoint x="650" y="480" />
            </Array>
          </mxGeometry>
        </mxCell>
        <mxCell id="crz99vqd3HnAdgXjQQs9-35" value="项目ID、支出总额" style="edgeLabel;html=1;align=center;verticalAlign=middle;resizable=0;points=[];" vertex="1" connectable="0" parent="crz99vqd3HnAdgXjQQs9-34">
          <mxGeometry x="-0.4311" relative="1" as="geometry">
            <mxPoint x="19" as="offset" />
          </mxGeometry>
        </mxCell>
        <mxCell id="crz99vqd3HnAdgXjQQs9-23" value="&lt;span&gt;支出预算&lt;/span&gt;" style="rounded=0;whiteSpace=wrap;html=1;" vertex="1" parent="1">
          <mxGeometry x="370" y="470" width="120" height="60" as="geometry" />
        </mxCell>
        <mxCell id="crz99vqd3HnAdgXjQQs9-24" value="&lt;span&gt;支出预算&lt;/span&gt;" style="rounded=0;whiteSpace=wrap;html=1;" vertex="1" parent="1">
          <mxGeometry x="510" y="350" width="120" height="60" as="geometry" />
        </mxCell>
        <mxCell id="crz99vqd3HnAdgXjQQs9-39" value="" style="edgeStyle=orthogonalEdgeStyle;rounded=0;orthogonalLoop=1;jettySize=auto;html=1;" edge="1" parent="1" source="crz99vqd3HnAdgXjQQs9-25" target="crz99vqd3HnAdgXjQQs9-38">
          <mxGeometry relative="1" as="geometry">
            <Array as="points">
              <mxPoint x="470" y="710" />
              <mxPoint x="470" y="710" />
            </Array>
          </mxGeometry>
        </mxCell>
        <mxCell id="crz99vqd3HnAdgXjQQs9-40" value="预算项目ID、年份&lt;br&gt;、预算科目" style="edgeLabel;html=1;align=center;verticalAlign=middle;resizable=0;points=[];" vertex="1" connectable="0" parent="crz99vqd3HnAdgXjQQs9-39">
          <mxGeometry x="0.2133" y="-5" relative="1" as="geometry">
            <mxPoint x="15" y="-15" as="offset" />
          </mxGeometry>
        </mxCell>
        <mxCell id="crz99vqd3HnAdgXjQQs9-25" value="同步中间表&lt;br&gt;存储全量预算" style="rounded=0;whiteSpace=wrap;html=1;" vertex="1" parent="1">
          <mxGeometry x="370" y="600" width="120" height="60" as="geometry" />
        </mxCell>
        <mxCell id="crz99vqd3HnAdgXjQQs9-36" style="edgeStyle=orthogonalEdgeStyle;rounded=0;orthogonalLoop=1;jettySize=auto;html=1;entryX=1.02;entryY=0.617;entryDx=0;entryDy=0;entryPerimeter=0;" edge="1" parent="1" source="crz99vqd3HnAdgXjQQs9-33" target="crz99vqd3HnAdgXjQQs9-23">
          <mxGeometry relative="1" as="geometry">
            <Array as="points">
              <mxPoint x="610" y="507" />
              <mxPoint x="610" y="507" />
            </Array>
          </mxGeometry>
        </mxCell>
        <mxCell id="crz99vqd3HnAdgXjQQs9-37" value="同步请求" style="edgeLabel;html=1;align=center;verticalAlign=middle;resizable=0;points=[];" vertex="1" connectable="0" parent="crz99vqd3HnAdgXjQQs9-36">
          <mxGeometry x="-0.1777" y="1" relative="1" as="geometry">
            <mxPoint x="-15" as="offset" />
          </mxGeometry>
        </mxCell>
        <mxCell id="crz99vqd3HnAdgXjQQs9-33" value="预算总额校验" style="rounded=1;whiteSpace=wrap;html=1;" vertex="1" parent="1">
          <mxGeometry x="650" y="470" width="120" height="60" as="geometry" />
        </mxCell>
        <mxCell id="crz99vqd3HnAdgXjQQs9-38" value="同步通知" style="rounded=1;whiteSpace=wrap;html=1;" vertex="1" parent="1">
          <mxGeometry x="370" y="750" width="120" height="60" as="geometry" />
        </mxCell>
        <mxCell id="crz99vqd3HnAdgXjQQs9-44" style="edgeStyle=orthogonalEdgeStyle;rounded=0;orthogonalLoop=1;jettySize=auto;html=1;" edge="1" parent="1" source="crz99vqd3HnAdgXjQQs9-41" target="crz99vqd3HnAdgXjQQs9-43">
          <mxGeometry relative="1" as="geometry">
            <Array as="points">
              <mxPoint x="1020" y="565" />
              <mxPoint x="1160" y="565" />
            </Array>
          </mxGeometry>
        </mxCell>
        <mxCell id="crz99vqd3HnAdgXjQQs9-46" value="项目ID，支出预算科目总额" style="edgeLabel;html=1;align=center;verticalAlign=middle;resizable=0;points=[];" vertex="1" connectable="0" parent="crz99vqd3HnAdgXjQQs9-44">
          <mxGeometry x="-0.1318" y="2" relative="1" as="geometry">
            <mxPoint as="offset" />
          </mxGeometry>
        </mxCell>
        <mxCell id="crz99vqd3HnAdgXjQQs9-41" value="支出预算" style="rounded=0;whiteSpace=wrap;html=1;" vertex="1" parent="1">
          <mxGeometry x="1000" y="470" width="120" height="60" as="geometry" />
        </mxCell>
        <mxCell id="crz99vqd3HnAdgXjQQs9-45" style="edgeStyle=orthogonalEdgeStyle;rounded=0;orthogonalLoop=1;jettySize=auto;html=1;" edge="1" parent="1" source="crz99vqd3HnAdgXjQQs9-42" target="crz99vqd3HnAdgXjQQs9-43">
          <mxGeometry relative="1" as="geometry">
            <Array as="points">
              <mxPoint x="1320" y="565" />
              <mxPoint x="1160" y="565" />
            </Array>
          </mxGeometry>
        </mxCell>
        <mxCell id="crz99vqd3HnAdgXjQQs9-47" value="项目ID，支出预算科目总额" style="edgeLabel;html=1;align=center;verticalAlign=middle;resizable=0;points=[];" vertex="1" connectable="0" parent="crz99vqd3HnAdgXjQQs9-45">
          <mxGeometry x="-0.3533" y="-2" relative="1" as="geometry">
            <mxPoint as="offset" />
          </mxGeometry>
        </mxCell>
        <mxCell id="crz99vqd3HnAdgXjQQs9-42" value="经营预算" style="rounded=0;whiteSpace=wrap;html=1;" vertex="1" parent="1">
          <mxGeometry x="1210" y="470" width="120" height="60" as="geometry" />
        </mxCell>
        <mxCell id="crz99vqd3HnAdgXjQQs9-51" value="" style="edgeStyle=orthogonalEdgeStyle;rounded=0;orthogonalLoop=1;jettySize=auto;html=1;" edge="1" parent="1" source="crz99vqd3HnAdgXjQQs9-43" target="crz99vqd3HnAdgXjQQs9-50">
          <mxGeometry relative="1" as="geometry" />
        </mxCell>
        <mxCell id="crz99vqd3HnAdgXjQQs9-52" value="同步请求" style="edgeLabel;html=1;align=center;verticalAlign=middle;resizable=0;points=[];" vertex="1" connectable="0" parent="crz99vqd3HnAdgXjQQs9-51">
          <mxGeometry x="0.1938" y="-1" relative="1" as="geometry">
            <mxPoint as="offset" />
          </mxGeometry>
        </mxCell>
        <mxCell id="crz99vqd3HnAdgXjQQs9-43" value="数据校验" style="shape=process;whiteSpace=wrap;html=1;backgroundOutline=1;" vertex="1" parent="1">
          <mxGeometry x="1100" y="600" width="120" height="60" as="geometry" />
        </mxCell>
        <mxCell id="crz99vqd3HnAdgXjQQs9-49" value="" style="edgeStyle=orthogonalEdgeStyle;rounded=0;orthogonalLoop=1;jettySize=auto;html=1;" edge="1" parent="1" source="crz99vqd3HnAdgXjQQs9-48" target="crz99vqd3HnAdgXjQQs9-43">
          <mxGeometry relative="1" as="geometry" />
        </mxCell>
        <mxCell id="crz99vqd3HnAdgXjQQs9-48" value="&lt;span&gt;时间周期：&lt;/span&gt;&lt;span&gt;每月1号凌晨2点；&lt;br&gt;月份：上个月；&lt;br&gt;判断值：同项目ID、支出预算科目总额、月份&lt;br&gt;&lt;/span&gt;" style="shape=parallelogram;perimeter=parallelogramPerimeter;whiteSpace=wrap;html=1;fixedSize=1;" vertex="1" parent="1">
          <mxGeometry x="1260" y="600" width="290" height="60" as="geometry" />
        </mxCell>
        <mxCell id="crz99vqd3HnAdgXjQQs9-50" value="支出预算管理" style="rounded=1;whiteSpace=wrap;html=1;" vertex="1" parent="1">
          <mxGeometry x="1100" y="730" width="120" height="60" as="geometry" />
        </mxCell>
        <mxCell id="crz99vqd3HnAdgXjQQs9-53" value="三层" style="text;html=1;align=center;verticalAlign=middle;resizable=0;points=[];autosize=1;" vertex="1" parent="1">
          <mxGeometry x="1140" y="820" width="40" height="20" as="geometry" />
        </mxCell>
      </root>
    </mxGraphModel>
  </diagram>
</mxfile>
